<?xml version="1.0" encoding="utf-8"?>
<svg width="219px" height="54px" viewBox="0 0 219 54" version="1.1" xmlns:xlink="http://www.w3.org/1999/xlink" xmlns="http://www.w3.org/2000/svg">
  <desc>Created with Lunacy</desc>
  <g id="Ozel-bayan">
    <g id="O" fill="#EE6C4D">
      <path d="M14.22 13.95Q17.82 13.95 20.754 15.624Q23.688 17.298 25.38 20.268Q27.072 23.238 27.072 26.982Q27.072 30.726 25.362 33.714Q23.652 36.702 20.718 38.376Q17.784 40.05 14.22 40.05Q10.656 40.05 7.722 38.376Q4.788 36.702 3.078 33.714Q1.368 30.726 1.368 26.982Q1.368 23.238 3.078 20.268Q4.788 17.298 7.722 15.624Q10.656 13.95 14.22 13.95ZM14.22 19.674Q11.196 19.674 9.414 21.636Q7.632 23.598 7.632 26.982Q7.632 30.33 9.414 32.31Q11.196 34.29 14.22 34.29Q17.208 34.29 19.008 32.31Q20.808 30.33 20.808 26.982Q20.808 23.634 19.026 21.654Q17.244 19.674 14.22 19.674Z" />
    </g>
    <g id="zel-bayan" fill="#3D5A80">
      <path d="M80.508 13.158L80.508 39.798L74.352 39.798L74.352 13.158L80.508 13.158ZM110.23 20.7Q108.268 19.458 105.784 19.458Q103.48 19.458 101.824 20.502Q100.168 21.546 99.412 23.346L99.412 13.158L93.256 13.158L93.256 39.798L99.412 39.798L99.412 36.162Q100.168 37.962 101.824 39.006Q103.48 40.05 105.784 40.05Q108.268 40.05 110.23 38.808Q112.192 37.566 113.326 35.226Q114.46 32.886 114.46 29.754Q114.46 26.586 113.326 24.264Q112.192 21.942 110.23 20.7ZM69.668 30.87Q69.848 29.97 69.848 29.214Q69.848 26.334 68.606 24.12Q67.364 21.906 65.096 20.682Q62.828 19.458 59.84 19.458Q56.888 19.458 54.584 20.7Q52.28 21.942 51.002 24.264Q49.724 26.586 49.724 29.754Q49.724 32.886 51.02 35.226Q52.316 37.566 54.602 38.808Q56.888 40.05 59.84 40.05Q62.36 40.05 64.412 39.096Q66.464 38.142 67.796 36.468Q69.128 34.794 69.524 32.67L63.008 32.67Q62.72 33.75 61.82 34.434Q60.92 35.118 59.552 35.118Q57.932 35.118 56.888 34.128Q55.844 33.138 55.736 30.87L69.668 30.87ZM126.596 19.458Q128.9 19.458 130.556 20.502Q132.212 21.546 133.004 23.346L133.004 19.71L139.124 19.71L139.124 39.798L133.004 39.798L133.004 36.162Q132.212 37.962 130.556 39.006Q128.9 40.05 126.596 40.05Q124.112 40.05 122.15 38.808Q120.188 37.566 119.054 35.226Q117.92 32.886 117.92 29.754Q117.92 26.586 119.054 24.264Q120.188 21.942 122.15 20.7Q124.112 19.458 126.596 19.458ZM176.428 19.458Q178.732 19.458 180.388 20.502Q182.044 21.546 182.836 23.346L182.836 19.71L188.956 19.71L188.956 39.798L182.836 39.798L182.836 36.162Q182.044 37.962 180.388 39.006Q178.732 40.05 176.428 40.05Q173.944 40.05 171.982 38.808Q170.02 37.566 168.886 35.226Q167.752 32.886 167.752 29.754Q167.752 26.586 168.886 24.264Q170.02 21.942 171.982 20.7Q173.944 19.458 176.428 19.458ZM212.738 21.798Q210.704 19.494 207.248 19.494Q204.944 19.494 203.234 20.538Q201.524 21.582 200.66 23.382L200.66 19.71L194.504 19.71L194.504 39.798L200.66 39.798L200.66 29.142Q200.66 26.946 201.758 25.758Q202.856 24.57 204.728 24.57Q206.492 24.57 207.554 25.704Q208.616 26.838 208.616 28.854L208.616 39.798L214.772 39.798L214.772 28.134Q214.772 24.102 212.738 21.798ZM46.552 34.65L37.264 34.65L46.192 24.57L46.192 19.71L30.676 19.71L30.676 24.822L39.172 24.822L30.532 34.938L30.532 39.798L46.552 39.798L46.552 34.65ZM154.14 32.022L149.316 19.71L142.44 19.71L150.864 39.042L146.148 49.374L152.916 49.374L165.444 19.71L158.64 19.71L154.14 32.022ZM62.558 25.308Q63.656 26.298 63.62 28.278L55.772 28.278Q55.916 26.334 57.032 25.326Q58.148 24.318 59.84 24.318Q61.46 24.318 62.558 25.308ZM100.618 26.172Q101.86 24.858 103.804 24.858Q105.784 24.858 106.99 26.154Q108.196 27.45 108.196 29.754Q108.196 32.058 106.99 33.354Q105.784 34.65 103.804 34.65Q101.86 34.65 100.618 33.318Q99.376 31.986 99.376 29.754Q99.376 27.486 100.618 26.172ZM128.576 24.858Q126.596 24.858 125.39 26.154Q124.184 27.45 124.184 29.754Q124.184 32.058 125.39 33.354Q126.596 34.65 128.576 34.65Q130.52 34.65 131.762 33.318Q133.004 31.986 133.004 29.754Q133.004 27.486 131.762 26.172Q130.52 24.858 128.576 24.858ZM178.408 24.858Q176.428 24.858 175.222 26.154Q174.016 27.45 174.016 29.754Q174.016 32.058 175.222 33.354Q176.428 34.65 178.408 34.65Q180.352 34.65 181.594 33.318Q182.836 31.986 182.836 29.754Q182.836 27.486 181.594 26.172Q180.352 24.858 178.408 24.858Z" />
    </g>
  </g>
</svg>