<?xml version="1.0" encoding="utf-8"?>
<svg width="458px" height="37px" viewBox="0 0 458 37" version="1.1" xmlns:xlink="http://www.w3.org/1999/xlink" xmlns="http://www.w3.org/2000/svg">
  <desc>Created with Lunacy</desc>
  <g id="Group-3" transform="translate(2.5 2.5)">
    <path d="M0 1L444 1" transform="translate(0 15)" id="Line" fill="none" stroke="#98C1D9" stroke-width="5" />
    <g id="3" transform="translate(421 0)">
      <path d="M0 16C0 7.16344 7.16344 0 16 0C24.8366 0 32 7.16344 32 16C32 24.8366 24.8366 32 16 32C7.16344 32 0 24.8366 0 16Z" id="3-bg" fill="#F5A18C" stroke="none" />
      <g id="3" fill="#FFFFFF">
        <path d="M12.696 13.76Q12.801 13.032 13.102 12.4825Q13.403 11.933 13.8545 11.5655Q14.306 11.198 14.8905 11.0125Q15.475 10.827 16.147 10.827Q16.847 10.827 17.4105 11.0265Q17.974 11.226 18.373 11.5795Q18.772 11.933 18.9855 12.409Q19.199 12.885 19.199 13.438Q19.199 13.921 19.0905 14.2885Q18.982 14.656 18.779 14.929Q18.576 15.202 18.275 15.391Q17.974 15.58 17.596 15.706Q18.506 15.993 18.954 16.581Q19.402 17.169 19.402 18.058Q19.402 18.814 19.122 19.395Q18.842 19.976 18.366 20.3715Q17.89 20.767 17.2635 20.97Q16.637 21.173 15.937 21.173Q15.174 21.173 14.607 20.998Q14.04 20.823 13.62 20.48Q13.2 20.137 12.906 19.64Q12.612 19.143 12.402 18.492L13.165 18.177Q13.466 18.051 13.7285 18.1105Q13.991 18.17 14.11 18.394Q14.236 18.639 14.3865 18.877Q14.537 19.115 14.747 19.3005Q14.957 19.486 15.2405 19.6015Q15.524 19.717 15.916 19.717Q16.357 19.717 16.686 19.5735Q17.015 19.43 17.2355 19.199Q17.456 18.968 17.5645 18.6845Q17.673 18.401 17.673 18.114Q17.673 17.75 17.596 17.4525Q17.519 17.155 17.274 16.945Q17.029 16.735 16.5705 16.616Q16.112 16.497 15.342 16.497L15.342 15.265Q15.979 15.258 16.399 15.146Q16.819 15.034 17.0675 14.8345Q17.316 14.635 17.414 14.355Q17.512 14.075 17.512 13.739Q17.512 13.025 17.113 12.654Q16.714 12.283 16.049 12.283Q15.741 12.283 15.482 12.3705Q15.223 12.458 15.0165 12.6155Q14.81 12.773 14.67 12.983Q14.53 13.193 14.46 13.445Q14.341 13.767 14.1485 13.872Q13.956 13.977 13.606 13.921L12.696 13.76Z" />
      </g>
    </g>
    <g id="2" transform="translate(260 0)">
      <path d="M0 16C0 7.16344 7.16344 0 16 0C24.8366 0 32 7.16344 32 16C32 24.8366 24.8366 32 16 32C7.16344 32 0 24.8366 0 16Z" id="2-bg" fill="#F5A18C" stroke="none" />
      <g id="2" fill="#FFFFFF">
        <path d="M18.807 19.451Q19.087 19.451 19.2515 19.6085Q19.416 19.766 19.416 20.025L19.416 21.061L12.472 21.061L12.472 20.487Q12.472 20.312 12.5455 20.1195Q12.619 19.927 12.78 19.773L15.853 16.693Q16.238 16.301 16.5425 15.944Q16.847 15.587 17.05 15.237Q17.253 14.887 17.3615 14.5265Q17.47 14.166 17.47 13.767Q17.47 13.403 17.365 13.1265Q17.26 12.85 17.0675 12.661Q16.875 12.472 16.6055 12.3775Q16.336 12.283 16 12.283Q15.692 12.283 15.4295 12.3705Q15.167 12.458 14.964 12.6155Q14.761 12.773 14.621 12.983Q14.481 13.193 14.411 13.445Q14.292 13.767 14.103 13.872Q13.914 13.977 13.557 13.921L12.647 13.76Q12.752 13.032 13.053 12.4825Q13.354 11.933 13.8055 11.5655Q14.257 11.198 14.8415 11.0125Q15.426 10.827 16.098 10.827Q16.798 10.827 17.379 11.0335Q17.96 11.24 18.373 11.618Q18.786 11.996 19.017 12.528Q19.248 13.06 19.248 13.711Q19.248 14.271 19.0835 14.747Q18.919 15.223 18.6425 15.657Q18.366 16.091 17.995 16.497Q17.624 16.903 17.218 17.323L14.936 19.654Q15.265 19.556 15.5905 19.5035Q15.916 19.451 16.21 19.451L18.807 19.451Z" />
      </g>
    </g>
    <g id="1" transform="translate(99 0)">
      <path d="M0 16C0 7.16344 7.16344 0 16 0C24.8366 0 32 7.16344 32 16C32 24.8366 24.8366 32 16 32C7.16344 32 0 24.8366 0 16Z" id="1-bg" fill="#EE6C4D" stroke="none" />
      <g id="1" fill="#FFFFFF">
        <path d="M19.185 19.766L19.185 21.061L13.585 21.061L13.585 19.766L15.636 19.766L15.636 13.865Q15.636 13.515 15.657 13.144L14.201 14.362Q14.075 14.46 13.9525 14.4845Q13.83 14.509 13.7215 14.488Q13.613 14.467 13.529 14.4145Q13.445 14.362 13.403 14.299L12.857 13.55L15.944 10.925L17.365 10.925L17.365 19.766L19.185 19.766Z" />
      </g>
    </g>
  </g>
</svg>